<?xml version="1.0" encoding="UTF-8" standalone="no"?>
<!-- Generator: Adobe Illustrator 15.0.2, SVG Export Plug-In . SVG Version: 6.00 Build 0)  -->

<svg
   xmlns:dc="http://purl.org/dc/elements/1.1/"
   xmlns:cc="http://creativecommons.org/ns#"
   xmlns:rdf="http://www.w3.org/1999/02/22-rdf-syntax-ns#"
   xmlns:svg="http://www.w3.org/2000/svg"
   xmlns="http://www.w3.org/2000/svg"
   xmlns:sodipodi="http://sodipodi.sourceforge.net/DTD/sodipodi-0.dtd"
   xmlns:inkscape="http://www.inkscape.org/namespaces/inkscape"
   version="1.1"
   id="Layer_1"
   x="0px"
   y="0px"
   width="200"
   height="200"
   viewBox="0 0 200 200"
   enable-background="new 0 0 612 792"
   xml:space="preserve"
   inkscape:version="0.48.2 r9819"
   sodipodi:docname="azgs-logo.svg"><metadata
   id="metadata5181"><rdf:RDF><cc:Work
       rdf:about=""><dc:format>image/svg+xml</dc:format><dc:type
         rdf:resource="http://purl.org/dc/dcmitype/StillImage" /></cc:Work></rdf:RDF></metadata><defs
   id="defs5179" /><sodipodi:namedview
   pagecolor="#ffffff"
   bordercolor="#666666"
   borderopacity="1"
   objecttolerance="10"
   gridtolerance="10"
   guidetolerance="10"
   inkscape:pageopacity="0"
   inkscape:pageshadow="2"
   inkscape:window-width="1055"
   inkscape:window-height="847"
   id="namedview5177"
   showgrid="false"
   inkscape:zoom="1.133499"
   inkscape:cx="93.700832"
   inkscape:cy="39.424417"
   inkscape:window-x="0"
   inkscape:window-y="0"
   inkscape:window-maximized="0"
   inkscape:current-layer="Layer_1" />









<g
   id="g5183"
   transform="matrix(1.0183403,0,0,1.0183403,-208.55813,-311.06834)"><g
     id="Layer_10">
	<path
   id="path4930"
   d="m 400.6,403.666 c 0,53.9 -43.693,97.6 -97.6,97.6 -53.9,0 -97.598,-43.699 -97.598,-97.6 0,-53.904 43.697,-97.602 97.598,-97.602 53.906,0 97.6,43.698 97.6,97.602 z"
   stroke-miterlimit="3.8637"
   inkscape:connector-curvature="0"
   style="fill:#ecaa69;stroke:#000000;stroke-width:1.20000005;stroke-miterlimit:3.86369991" />
</g><g
     id="Layer_9">
	<polygon
   id="polygon4933"
   points="258.76,376.26 259.178,378.58 262.293,383.885 265.822,388.502 261.666,391.848 259.791,394.402 259.594,400.197 256.996,404.188 256.582,408.254 259.939,410.707 260.379,412.836 257.73,415.104 256.26,414.676 254.713,418.572 308.361,439.484 339.27,439.484 338.555,409.109 287.102,385.559 277.551,372.781 272.359,361.09 272.535,356.111 272.15,354.768 272.465,351.951 271.635,343.502 268.475,343.512 268.658,356.309 266.711,359.391 265.531,359.674 264.352,358.115 260.82,357.121 258.465,358.398 258.76,367.676 260.232,372.717 "
   clip-rule="evenodd"
   style="fill:#fecc50;fill-rule:evenodd" />
</g><g
     id="Layer_8">
	<polyline
   id="polyline4936"
   points="271.289,343.666 337.236,343.502 338.35,395.152    337.656,398.035 335.783,399.998 331.012,400.297 326.965,398.428 324.059,393.418 320.426,390.271 303.191,386.146    300.387,384.277 301.529,381.822 299.559,380.152 291.875,377.303 290.633,373.176 285.957,371.211 276.098,361.385    271.357,355.852 272.119,352.182 272.119,349.561 271.082,343.6  "
   clip-rule="evenodd"
   style="fill:#db7c39;fill-rule:evenodd" />
</g><g
     id="Layer_7">
	<path
   id="path4939"
   d="m 338.277,394.947 c 0,0 -0.813,3.469 -2.066,4.365 -1.254,0.891 -5.211,0.65 -6.594,-0.24 -1.381,-0.891 -3.766,-2.438 -3.703,-6.299 0.025,-1.664 -1.633,-3.463 -2.635,-3.686 -3.201,-0.709 -19.771,-4.453 -20.65,-5.168 -0.877,-0.713 0.691,-5.881 -0.502,-6.475 -1.191,-0.594 -8.725,-1.008 -9.291,-2.494 -0.564,-1.484 1.008,-5.072 -0.564,-5.17 -1.943,-0.117 -5.396,0.299 -6.902,-1.424 -1.51,-1.723 -10.799,-11.525 -12.115,-12.773 -1.316,-1.248 -1.758,-0.891 -1.758,-0.891 l -0.502,0.711 c -1.254,1.428 -2.887,4.693 -2.447,5.645 0.44,0.952 3.801,6.896 4.143,7.9 0.689,2.021 1.631,5.229 1.818,6.357 0.191,1.131 -0.313,5.883 0.881,7.367 0.6,0.748 4.143,2.26 4.895,2.852 0.754,0.596 6.904,7.545 8.225,8.197 1.488,0.738 3.139,0.615 4.203,0.297 2.197,-0.648 6.594,0.799 6.906,2.082 0.375,1.541 -0.566,1.664 0,2.672 0.564,1.012 4.174,4.986 6.213,5.408 1.443,0.299 4.471,-7.172 6.779,-6.357 2.197,0.773 5.711,2.676 6.023,3.088 0.311,0.42 -1.506,1.428 -1.254,2.021 0.252,0.592 11.109,7.248 12.299,7.248 1.195,0 1.383,-0.891 1.697,-1.783 0.313,-0.891 3.389,1.25 4.016,1.723 0.627,0.477 0.943,0.951 1.447,1.543 0.502,0.598 1.605,3.168 1.857,3.402"
   clip-rule="evenodd"
   inkscape:connector-curvature="0"
   style="fill-rule:evenodd" />
</g><g
     id="Layer_6">
	<g
   id="g4942">
		
			<polygon
   id="polygon4944"
   points="260.232,372.717 258.76,376.26 259.203,379.096 262.588,384.482 265.826,388.877 261.41,391.994 259.791,394.402 259.645,400.502 256.996,404.188 256.555,408.582 259.939,410.707 260.379,412.836 257.73,415.104 256.26,414.676 254.641,418.783 308.361,439.484 339.27,439.484 337.359,343.654 268.475,343.512 268.475,356.697 266.711,359.391 265.531,359.674 264.352,358.115 263.178,357.547 260.82,357.121 258.465,358.398 258.76,368.18 "
   stroke-miterlimit="1"
   clip-rule="evenodd"
   style="fill:none;stroke:#000000;stroke-width:0.60600001;stroke-miterlimit:1" />
	</g>
</g><g
     id="Layer_5">
	<polyline
   id="polyline4947"
   points="271.322,355.688 271.91,351.658    271.564,346.613 271.115,343.699  "
   stroke-miterlimit="3.8637"
   style="fill:none;stroke:#000000;stroke-width:0.60600001;stroke-miterlimit:3.86369991" />
</g><g
     id="Layer_4">
	<g
   id="g4950">
		<g
   id="g4952">
			<path
   id="path4954"
   d="m 230.786,440.997 c 0.505,-0.033 3.767,-0.316 4.422,-0.616 0.45,-0.206 0.857,-0.616 0.575,-1.229 l -0.328,-0.716 c -0.094,-0.205 -0.021,-0.263 0.061,-0.301 l 0.45,-0.206 c 0.164,-0.075 0.234,-0.083 0.309,0.081 0.122,0.266 0.445,1.133 1.214,2.811 0.685,1.493 0.953,1.915 1.084,2.202 0.057,0.122 -0.057,0.199 -0.2,0.265 l -0.389,0.179 c -0.123,0.056 -0.193,0.063 -0.25,-0.06 l -0.244,-0.531 c -0.225,-0.491 -0.737,-0.851 -1.538,-0.979 -0.561,-0.09 -4.787,0.09 -6.897,0.24 -0.484,0.024 -5.643,0.384 -6.279,0.453 -0.233,0.032 -0.545,0.052 -0.705,0.299 -0.054,0.099 -0.118,0.228 -0.2,0.265 -0.062,0.028 -0.162,0.025 -0.278,-0.12 -0.443,-0.589 -1.585,-1.675 -2.074,-1.822 -0.149,-0.056 -0.259,-0.079 -0.306,-0.182 -0.056,-0.123 0.048,-0.22 0.245,-0.385 1.111,-0.979 4.962,-4.677 6.093,-5.665 1.38,-1.203 4.576,-4.277 4.997,-4.817 0.516,-0.657 0.518,-1.302 0.377,-1.608 l -0.319,-0.695 c -0.056,-0.123 0.016,-0.181 0.119,-0.228 l 0.389,-0.179 c 0.123,-0.056 0.275,-0.102 0.351,0.063 0.178,0.389 0.313,0.847 1.515,3.465 0.778,1.698 1.168,2.386 1.355,2.795 0.094,0.205 -0.02,0.281 -0.163,0.348 l -0.389,0.178 c -0.102,0.047 -0.193,0.064 -0.24,-0.038 l -0.263,-0.573 c -0.253,-0.552 -0.542,-0.643 -1.018,-0.275 -0.652,0.521 -2.905,2.521 -3.529,3.104 l 2.053,4.477 z m -2.788,-3.921 c -0.529,0.465 -4.272,3.643 -4.718,4.02 -0.269,0.223 -0.394,0.329 -0.347,0.432 0.056,0.123 0.166,0.146 0.378,0.124 0.313,-0.02 5.948,-0.475 6.535,-0.545 l -1.848,-4.031 z"
   inkscape:connector-curvature="0" />
		</g>
		<g
   id="g4956">
			<path
   id="path4958"
   d="m 220.284,425.096 c -1.636,0.313 -3.05,0.585 -3.643,0.722 -0.725,0.162 -1.046,0.521 -0.986,0.831 l 0.169,0.884 c 0.021,0.11 -0.041,0.146 -0.129,0.162 l -0.597,0.115 c -0.11,0.021 -0.159,0.007 -0.18,-0.104 -0.038,-0.198 -0.103,-0.896 -0.565,-3.306 -0.237,-1.238 -0.677,-3.171 -0.851,-4.077 -0.331,-1.724 0.042,-3.124 0.708,-4.191 0.577,-0.937 1.35,-1.565 2.167,-1.723 2.807,-0.538 4.47,1.319 5.02,3.231 l 0.154,-0.03 c 0.09,-0.728 0.442,-1.162 0.892,-1.684 0.298,-0.355 2.032,-1.948 2.264,-2.176 0.173,-0.171 1.625,-1.687 2.048,-2.227 0.237,-0.32 0.252,-1.194 0.155,-1.702 -0.03,-0.155 0.055,-0.194 0.143,-0.211 l 0.53,-0.102 c 0.133,-0.025 0.203,-0.017 0.233,0.139 0.034,0.177 0.078,0.764 0.404,2.466 0.123,0.642 0.324,1.45 0.469,2.087 -0.381,0.761 -2.682,2.623 -3.362,3.144 -1.359,1.04 -2.821,2.26 -2.617,3.32 l 0.144,0.752 1.127,-0.217 c 1.304,-0.25 3.767,-0.791 4.046,-0.891 0.456,-0.133 0.82,-0.386 0.756,-0.718 l -0.174,-0.906 c -0.029,-0.154 0.033,-0.189 0.143,-0.211 l 0.53,-0.102 c 0.155,-0.029 0.204,-0.016 0.267,0.315 0.004,0.022 0.044,0.588 0.489,2.908 0.449,2.344 0.613,2.839 0.66,3.082 0.034,0.177 -0.032,0.189 -0.187,0.22 l -0.508,0.097 c -0.111,0.021 -0.177,0.034 -0.198,-0.076 l -0.127,-0.663 c -0.093,-0.486 -0.325,-0.854 -0.877,-0.748 -2.197,0.375 -4.274,0.773 -6.375,1.177 l -2.142,0.413 z m 1.793,-3.553 c -0.059,-0.424 -0.109,-0.689 -0.147,-0.888 -0.56,-2.918 -3.476,-3.069 -4.515,-2.87 -1.017,0.195 -1.921,0.735 -2.314,1.315 -0.555,0.931 -0.629,1.977 -0.502,2.64 0.072,0.376 0.171,0.654 0.36,0.802 0.114,0.116 0.37,0.136 0.643,0.129 l 6.475,-1.128 z"
   inkscape:connector-curvature="0" />
		</g>
		<g
   id="g4960">
			<path
   id="path4962"
   d="m 218.534,405.122 c -0.541,-0.002 -4.592,0.053 -4.884,0.075 -0.541,0.043 -0.766,0.268 -0.768,0.74 l -0.003,1.08 c 0,0.112 -0.045,0.18 -0.136,0.18 l -0.652,-0.002 c -0.09,-10e-4 -0.135,-0.068 -0.135,-0.158 0.001,-0.271 0.072,-1.418 0.079,-3.623 0.007,-2.296 -0.058,-3.017 -0.057,-3.331 0,-0.113 0.068,-0.158 0.203,-0.157 l 0.563,0.002 c 0.113,0 0.158,0.067 0.157,0.18 l -0.002,0.653 c -0.002,0.563 0.177,0.9 0.582,0.902 0.225,0 5.199,0.083 5.469,0.084 l 1.733,0.006 c 0.225,0 5.424,-0.051 5.627,-0.051 0.698,0.003 0.811,-0.335 0.813,-0.763 l 0.003,-0.923 c 0,-0.112 0.045,-0.18 0.158,-0.18 l 0.63,0.002 c 0.09,10e-4 0.135,0.068 0.135,0.203 -0.001,0.271 -0.071,1.171 -0.078,3.309 -0.007,2.363 0.058,3.331 0.057,3.579 0,0.112 -0.045,0.18 -0.181,0.179 l -0.607,-10e-4 c -0.09,-0.001 -0.135,-0.068 -0.135,-0.181 l 0.002,-0.653 c 0.001,-0.45 -0.064,-0.923 -0.604,-1.015 -0.337,-0.046 -5.199,-0.128 -6.392,-0.132 l -1.577,-0.004 z"
   inkscape:connector-curvature="0" />
		</g>
		<g
   id="g4964">
			<path
   id="path4966"
   d="m 214.22,387.978 c -0.061,0.309 -0.108,0.667 0.176,1.319 0.218,0.525 1.985,2.846 2.49,3.427 0.098,0.088 0.142,0.211 0.081,0.291 l -0.273,0.336 c -0.035,0.062 -0.105,0.071 -0.211,0.027 l -3.657,-2.166 c -0.186,-0.105 -0.204,-0.247 -0.182,-0.357 0.03,-0.155 0.087,-0.327 0.144,-0.5 0.337,-1.012 0.951,-4.125 1.312,-5.958 0.266,-1.347 0.447,-2.504 0.591,-3.348 0.104,-0.759 0.221,-1.471 0.251,-1.625 0.069,-0.354 0.387,-0.452 0.591,-0.205 0.164,0.216 11.817,12.56 12.327,13.119 l 1.049,-5.322 c 0.122,-0.618 0.213,-1.082 0.079,-1.682 -0.161,-0.697 -2.009,-3.309 -2.323,-3.692 -0.071,-0.105 -0.076,-0.198 -0.01,-0.3 l 0.272,-0.336 c 0.057,-0.058 0.11,-0.093 0.208,-0.005 0.447,0.409 2.955,2.004 3.49,2.431 0.102,0.066 0.186,0.22 0.165,0.331 -0.018,0.088 -0.074,0.261 -0.175,0.539 -0.394,1.184 -1.174,4.678 -1.565,6.666 l -1.018,5.167 c -0.035,0.177 -0.083,0.42 -0.259,0.385 -0.132,-0.026 -0.305,-0.083 -0.42,-0.197 -1.213,-1.179 -11.99,-12.731 -12.225,-12.938 l -0.908,4.593 z"
   inkscape:connector-curvature="0" />
		</g>
		<g
   id="g4968">
			<path
   id="path4970"
   d="m 232.097,375.476 c -1.563,1.022 -4.495,1.513 -7.458,0.092 -1.238,-0.594 -3.01,-1.843 -4.147,-4.311 -1.314,-2.827 -0.621,-5.315 0.255,-7.141 0.808,-1.685 1.821,-3.12 3.979,-4.182 1.957,-0.958 4.601,-1.213 7.401,0.13 1.481,0.71 2.799,1.917 3.714,3.654 1.011,2.107 1.401,4.416 -0.137,7.622 -0.672,1.4 -1.843,3.01 -3.607,4.136 z m -1.336,-12.148 c -4.444,-2.132 -8.28,-0.378 -9.098,1.327 -0.195,0.406 -0.783,1.372 -0.179,3.184 0.562,1.742 2.4,3.373 4.064,4.171 5.195,2.492 8.472,0.395 9.28,-1.29 1.801,-3.754 -2.403,-6.594 -4.067,-7.392 z"
   inkscape:connector-curvature="0" />
		</g>
		<g
   id="g4972">
			<path
   id="path4974"
   d="m 245.563,345.498 c -1.502,-1.325 -2.345,-2.037 -3.219,-2.747 -0.673,-0.563 -2.402,-1.938 -2.7,-2.11 -0.512,-0.271 -1.105,-0.074 -1.447,0.314 l -0.477,0.54 c -0.074,0.084 -0.14,0.057 -0.241,-0.033 l -0.422,-0.372 c -0.084,-0.074 -0.104,-0.121 0.016,-0.256 0.164,-0.186 0.69,-0.682 1.792,-1.931 0.893,-1.013 1.199,-1.463 1.363,-1.648 0.134,-0.152 0.183,-0.139 0.284,-0.05 l 0.405,0.357 c 0.084,0.075 0.137,0.151 0.077,0.219 l -0.417,0.473 c -0.253,0.287 -0.115,0.709 0.448,1.295 1.027,1.115 4.605,4.749 6.834,6.713 l 2.887,2.544 c 0.253,0.223 0.542,0.508 0.334,0.745 -0.223,0.253 -0.501,0.398 -0.851,0.42 -0.523,0.049 -2.147,0.087 -4.239,0.044 -2.507,-0.049 -5.318,-0.127 -5.973,-0.134 -0.59,-0.011 -5.548,-0.24 -6.448,-0.343 l -0.119,0.135 3.411,3.006 c 1.401,1.235 3.612,2.914 4.269,3.462 1.009,0.829 1.783,0.972 2.408,0.263 l 0.372,-0.422 c 0.104,-0.118 0.17,-0.09 0.271,-0.001 l 0.405,0.357 c 0.101,0.089 0.12,0.136 0.016,0.254 -0.149,0.169 -1.092,1.137 -1.792,1.931 -0.461,0.523 -1.438,1.733 -1.586,1.902 -0.059,0.068 -0.108,0.055 -0.226,-0.049 l -0.439,-0.387 c -0.051,-0.045 -0.086,-0.106 -0.012,-0.191 l 0.521,-0.591 c 0.327,-0.372 0.025,-1.118 -1.032,-2.199 -0.306,-0.3 -2.888,-2.816 -5.387,-5.019 l -1.52,-1.339 c -0.997,-0.878 -2.478,-1.104 -3.239,-0.274 l -0.389,0.407 c -0.074,0.084 -0.157,0.042 -0.208,-0.003 l -0.456,-0.402 c -0.067,-0.06 -0.086,-0.106 -0.012,-0.19 0.074,-0.084 0.21,-0.205 0.493,-0.525 0.314,-0.323 0.808,-0.848 1.581,-1.726 0.506,-0.574 0.919,-1.111 1.097,-1.313 0.194,-0.22 0.38,-0.295 0.651,-0.296 0.176,0.005 7.176,0.265 8.248,0.309 0.496,0.017 5.758,0.275 6.141,0.283 l 0.06,-0.068 -1.533,-1.354 z"
   inkscape:connector-curvature="0" />
		</g>
		<g
   id="g4976">
			<path
   id="path4978"
   d="m 254.139,338.758 c 0.117,0.492 0.942,3.662 1.347,4.257 0.279,0.409 0.75,0.742 1.309,0.361 l 0.651,-0.443 c 0.186,-0.127 0.255,-0.065 0.306,0.009 l 0.279,0.409 c 0.102,0.149 0.121,0.217 -0.028,0.319 -0.242,0.165 -1.043,0.628 -2.568,1.667 -1.358,0.925 -1.729,1.259 -1.99,1.437 -0.112,0.076 -0.207,-0.023 -0.295,-0.153 l -0.241,-0.354 c -0.076,-0.111 -0.096,-0.18 0.016,-0.256 l 0.483,-0.33 c 0.447,-0.304 0.716,-0.869 0.708,-1.68 -0.006,-0.568 -0.89,-4.704 -1.391,-6.759 -0.104,-0.474 -1.322,-5.5 -1.497,-6.116 -0.071,-0.224 -0.143,-0.529 -0.412,-0.645 -0.107,-0.037 -0.245,-0.079 -0.295,-0.153 -0.038,-0.056 -0.052,-0.155 0.072,-0.294 0.506,-0.536 1.386,-1.843 1.45,-2.349 0.03,-0.157 0.035,-0.269 0.128,-0.333 0.111,-0.076 0.225,0.01 0.42,0.177 1.152,0.931 5.441,4.109 6.605,5.059 1.416,1.16 4.982,3.796 5.585,4.121 0.734,0.398 1.37,0.292 1.649,0.103 l 0.632,-0.431 c 0.112,-0.076 0.181,-0.014 0.244,0.079 l 0.241,0.354 c 0.076,0.112 0.146,0.254 -0.003,0.356 -0.354,0.241 -0.782,0.451 -3.163,2.073 -1.544,1.051 -2.157,1.551 -2.529,1.804 -0.186,0.127 -0.28,0.028 -0.369,-0.103 l -0.241,-0.354 c -0.063,-0.093 -0.095,-0.18 -0.002,-0.243 l 0.521,-0.355 c 0.502,-0.342 0.543,-0.642 0.102,-1.05 -0.624,-0.556 -2.971,-2.442 -3.65,-2.96 l -4.074,2.776 z m 3.4,-3.405 c -0.548,-0.444 -4.306,-3.603 -4.753,-3.979 -0.264,-0.228 -0.39,-0.333 -0.483,-0.27 -0.111,0.076 -0.117,0.188 -0.058,0.394 0.071,0.305 1.462,5.785 1.63,6.352 l 3.664,-2.497 z"
   inkscape:connector-curvature="0" />
		</g>
		<g
   id="g4980">
			<path
   id="path4982"
   d="m 296.484,326.425 c 0.056,0.31 0.184,0.516 0.216,0.693 0.032,0.177 -0.085,0.29 -0.291,0.418 -1.631,1.231 -3.422,2.079 -6.235,2.584 -2.304,0.414 -5.027,0.149 -6.878,-1.371 -1.626,-1.286 -2.651,-3.045 -3.133,-5.726 -0.362,-2.016 0.204,-4.335 1.57,-6.021 1.362,-1.708 3.22,-2.82 5.878,-3.298 2.237,-0.402 4.01,-0.08 4.825,0.253 0.294,0.107 0.441,0.035 0.542,-0.166 l 0.158,-0.394 c 0.083,-0.175 0.115,-0.25 0.248,-0.273 0.244,-0.043 0.338,0.1 0.382,0.343 l 1.152,4.503 c 0.07,0.262 0.068,0.376 -0.017,0.415 l -0.597,0.244 c -0.129,0.046 -0.203,0.014 -0.306,-0.173 -0.549,-1.022 -1.513,-2.312 -2.621,-3.005 -1.011,-0.665 -2.241,-1.015 -3.747,-0.744 -1.196,0.215 -2.236,0.791 -3.046,2.262 -0.8,1.401 -1.223,3.375 -0.864,5.369 0.47,2.614 1.611,4.764 3.022,5.745 1.228,0.854 2.153,1.168 3.66,0.897 1.152,-0.207 1.756,-0.407 2.423,-0.893 0.425,-0.305 0.342,-1.022 0.135,-2.174 l -0.287,-1.595 c -0.143,-0.797 -0.405,-0.979 -0.958,-0.879 l -0.93,0.167 c -0.133,0.024 -0.171,-0.061 -0.191,-0.171 l -0.1,-0.554 c -0.016,-0.088 -0.006,-0.159 0.127,-0.183 0.199,-0.036 1.296,-0.164 3.29,-0.522 2.038,-0.366 2.846,-0.58 3.023,-0.612 0.177,-0.032 0.211,0.03 0.231,0.141 l 0.1,0.554 c 0.024,0.133 0.01,0.181 -0.123,0.205 l -0.643,0.116 c -0.398,0.072 -0.659,0.278 -0.543,0.921 l 0.528,2.924 z"
   inkscape:connector-curvature="0" />
		</g>
		<g
   id="g4984">
			<path
   id="path4986"
   d="m 307.715,320.155 c 1.032,0.079 2.024,0.087 2.299,0.04 0.389,-0.061 0.718,-0.238 1.086,-0.617 0.272,-0.318 0.59,-0.926 0.622,-1.352 0.012,-0.157 0.083,-0.197 0.195,-0.188 l 0.601,0.113 c 0.11,0.031 0.198,0.061 0.166,0.193 -0.097,0.376 -0.186,1.543 -0.246,2.329 -0.077,1.01 -0.069,2.094 -0.061,2.569 0.013,0.136 -0.079,0.152 -0.193,0.166 l -0.547,0.071 c -0.092,0.016 -0.133,-0.033 -0.166,-0.193 -0.063,-0.366 -0.247,-0.899 -0.361,-1.179 -0.214,-0.445 -0.73,-0.778 -1.174,-0.879 -0.6,-0.136 -1.292,-0.234 -2.279,-0.31 l -0.103,1.347 c -0.093,1.212 -0.146,3.397 -0.178,3.801 -0.089,1.167 0.127,1.59 0.409,1.747 0.326,0.16 0.747,0.26 1.869,0.346 0.382,0.029 1.326,0.079 1.801,0.07 0.452,-0.011 1.143,-0.184 1.762,-0.61 0.619,-0.427 1.982,-1.723 2.473,-2.227 0.097,-0.083 0.165,-0.101 0.229,-0.05 l 0.364,0.253 c 0.086,0.052 0.104,0.121 0.076,0.187 l -1.269,3.312 c -0.083,0.197 -0.25,0.319 -0.52,0.299 -0.112,-0.008 -0.604,-0.069 -2.039,-0.201 -1.458,-0.111 -3.835,-0.315 -7.718,-0.612 -0.83,-0.063 -1.46,-0.089 -1.909,-0.123 -0.473,-0.014 -0.767,-0.013 -0.968,-0.029 -0.157,-0.012 -0.197,-0.083 -0.183,-0.262 l 0.036,-0.471 c 0.01,-0.135 0.083,-0.197 0.24,-0.185 l 0.673,0.052 c 1.032,0.079 1.134,-0.072 1.194,-0.857 l 0.574,-7.518 c 0.142,-1.863 0.308,-4.626 0.302,-4.853 -0.035,-0.725 -0.247,-0.899 -0.853,-0.945 l -0.875,-0.067 c -0.089,-0.007 -0.107,-0.076 -0.095,-0.233 l 0.041,-0.539 c 0.005,-0.067 0.034,-0.155 0.169,-0.145 0.494,0.038 1.274,0.165 3.316,0.321 l 7.878,0.579 c 0.359,0.027 0.789,0.015 0.901,0.023 0.112,0.009 0.153,0.057 0.171,0.126 0.065,0.321 0.571,3.452 0.645,3.684 0.036,0.115 0.032,0.16 -0.085,0.219 l -0.372,0.152 c -0.094,0.038 -0.204,0.007 -0.263,-0.11 -0.099,-0.188 -1.964,-2.362 -2.456,-2.715 -0.449,-0.328 -1.056,-0.667 -1.66,-0.736 l -2.955,-0.315 -0.564,6.522 z"
   inkscape:connector-curvature="0" />
		</g>
		<g
   id="g4988">
			<path
   id="path4990"
   d="m 322.879,329.993 c -1.193,-1.437 -2.016,-4.293 -0.942,-7.398 0.449,-1.298 1.488,-3.201 3.81,-4.613 2.659,-1.628 5.21,-1.223 7.124,-0.561 1.766,0.611 3.309,1.454 4.609,3.475 1.176,1.835 1.73,4.433 0.715,7.368 -0.537,1.553 -1.585,3 -3.206,4.107 -1.979,1.245 -4.228,1.896 -7.589,0.734 -1.467,-0.508 -3.201,-1.488 -4.521,-3.112 z m 11.917,-2.714 c 1.611,-4.658 -0.569,-8.27 -2.356,-8.888 -0.425,-0.147 -1.452,-0.622 -3.184,0.185 -1.667,0.757 -3.077,2.77 -3.681,4.514 -1.883,5.445 0.575,8.462 2.341,9.073 3.935,1.361 6.277,-3.14 6.88,-4.884 z"
   inkscape:connector-curvature="0" />
		</g>
		<g
   id="g4992">
			<path
   id="path4994"
   d="m 347.164,334.481 c -0.211,0.319 -2.888,4.377 -3.327,5.166 l 1.07,0.707 c 0.883,0.583 1.729,1.14 2.805,1.716 1.077,0.575 3.842,-0.836 4.582,-1.346 0.131,-0.075 0.225,-0.095 0.3,0.036 l 0.276,0.398 c 0.031,0.075 0.02,0.093 -0.074,0.194 -0.143,0.094 -2.939,2.698 -3.387,3.131 -0.464,-0.36 -5.861,-3.948 -7.59,-5.088 -1.86,-1.227 -2.573,-1.617 -2.817,-1.778 -0.132,-0.087 -0.126,-0.137 -0.039,-0.269 l 0.31,-0.47 c 0.063,-0.094 0.105,-0.119 0.219,-0.044 l 0.582,0.384 c 0.695,0.458 0.981,0.27 1.118,0.063 0.235,-0.357 3.378,-4.998 4.134,-6.144 l 0.694,-1.052 c 0.793,-1.202 2.069,-3.219 2.249,-3.532 0.284,-0.513 0.314,-0.763 -0.118,-1.048 l -0.694,-0.458 c -0.113,-0.075 -0.07,-0.181 -0.008,-0.275 l 0.298,-0.451 c 0.062,-0.094 0.105,-0.119 0.218,-0.045 0.207,0.136 0.846,0.639 2.556,1.767 2.197,1.45 3.024,1.914 3.193,2.026 0.15,0.099 0.132,0.168 0.045,0.299 l -0.285,0.432 c -0.063,0.094 -0.137,0.125 -0.287,0.026 l -0.883,-0.583 c -0.582,-0.384 -0.781,-0.246 -1.116,0.261 -0.161,0.244 -2.089,3.044 -2.957,4.359 l -1.067,1.618 z"
   inkscape:connector-curvature="0" />
		</g>
		<g
   id="g4996">
			<path
   id="path4998"
   d="m 355.809,348.527 c -0.358,-1.833 0.29,-4.734 2.722,-6.944 1.017,-0.923 2.841,-2.094 5.556,-2.219 3.114,-0.154 5.157,1.426 6.52,2.925 1.257,1.382 2.205,2.862 2.378,5.26 0.15,2.174 -0.608,4.719 -2.907,6.808 -1.216,1.105 -2.83,1.872 -4.783,2.065 -2.333,0.143 -4.619,-0.365 -7.011,-2.997 -1.046,-1.15 -2.096,-2.841 -2.475,-4.898 z m 11.757,3.335 c 3.648,-3.315 3.468,-7.53 2.196,-8.929 -0.303,-0.333 -0.977,-1.242 -2.883,-1.365 -1.825,-0.135 -4.028,0.955 -5.395,2.196 -4.265,3.875 -3.556,7.701 -2.299,9.083 2.801,3.081 7.015,0.256 8.381,-0.985 z"
   inkscape:connector-curvature="0" />
		</g>
		<g
   id="g5000">
			<path
   id="path5002"
   d="m 375.486,376.073 c -0.283,0.139 -0.445,0.319 -0.606,0.398 -0.162,0.08 -0.303,-0.002 -0.482,-0.164 -1.632,-1.229 -2.94,-2.718 -4.201,-5.283 -1.033,-2.101 -1.527,-4.792 -0.576,-6.99 0.788,-1.917 2.197,-3.387 4.641,-4.588 1.839,-0.904 4.225,-0.998 6.223,-0.149 2.018,0.839 3.598,2.32 4.789,4.744 1.002,2.04 1.182,3.833 1.085,4.708 -0.022,0.312 0.088,0.433 0.309,0.475 l 0.423,0.043 c 0.19,0.032 0.271,0.042 0.331,0.164 0.108,0.222 -0.003,0.352 -0.225,0.461 l -4.013,2.348 c -0.232,0.139 -0.344,0.168 -0.403,0.098 l -0.399,-0.506 c -0.079,-0.111 -0.068,-0.192 0.083,-0.342 0.831,-0.81 1.807,-2.091 2.167,-3.347 0.36,-1.155 0.359,-2.434 -0.316,-3.807 -0.536,-1.091 -1.376,-1.932 -3.014,-2.306 -1.567,-0.383 -3.582,-0.246 -5.399,0.647 -2.384,1.172 -4.137,2.861 -4.691,4.488 -0.483,1.416 -0.53,2.392 0.146,3.766 0.516,1.05 0.875,1.576 1.525,2.084 0.41,0.325 1.077,0.048 2.127,-0.469 l 1.455,-0.715 c 0.727,-0.357 0.829,-0.659 0.581,-1.164 l -0.417,-0.848 c -0.06,-0.122 0.012,-0.181 0.112,-0.231 l 0.505,-0.248 c 0.081,-0.04 0.151,-0.049 0.211,0.072 0.09,0.182 0.516,1.201 1.409,3.02 0.913,1.858 1.341,2.576 1.421,2.737 0.079,0.162 0.028,0.212 -0.072,0.261 l -0.506,0.249 c -0.121,0.06 -0.171,0.059 -0.23,-0.062 l -0.288,-0.586 c -0.179,-0.364 -0.449,-0.557 -1.035,-0.269 l -2.67,1.311 z"
   inkscape:connector-curvature="0" />
		</g>
		<g
   id="g5004">
			<path
   id="path5006"
   d="m 384.539,381.474 c 0.523,-0.132 4.435,-1.19 4.713,-1.283 0.513,-0.176 0.676,-0.449 0.561,-0.908 l -0.265,-1.047 c -0.027,-0.109 -10e-4,-0.186 0.087,-0.208 l 0.633,-0.16 c 0.087,-0.022 0.147,0.033 0.169,0.12 0.066,0.262 0.282,1.391 0.822,3.53 0.563,2.226 0.804,2.908 0.882,3.213 0.027,0.109 -0.027,0.169 -0.158,0.202 l -0.546,0.138 c -0.108,0.028 -0.169,-0.027 -0.196,-0.136 l -0.16,-0.633 c -0.138,-0.546 -0.396,-0.829 -0.788,-0.73 -0.218,0.055 -5.058,1.208 -5.319,1.274 l -1.681,0.425 c -0.218,0.055 -5.242,1.394 -5.438,1.443 -0.677,0.171 -0.703,0.525 -0.599,0.94 l 0.227,0.895 c 0.027,0.109 0,0.186 -0.109,0.213 l -0.61,0.154 c -0.088,0.022 -0.147,-0.033 -0.181,-0.164 -0.066,-0.262 -0.222,-1.151 -0.745,-3.224 -0.578,-2.292 -0.881,-3.213 -0.941,-3.454 -0.027,-0.109 -10e-4,-0.186 0.13,-0.219 l 0.59,-0.148 c 0.087,-0.022 0.147,0.032 0.175,0.141 l 0.16,0.633 c 0.11,0.436 0.291,0.878 0.837,0.833 0.338,-0.039 5.068,-1.164 6.226,-1.457 l 1.524,-0.383 z"
   inkscape:connector-curvature="0" />
		</g>
		<g
   id="g5008">
			<path
   id="path5010"
   d="m 379.489,395.109 c 1.401,-1.737 3.947,-2.652 5.881,-2.748 2.315,-0.115 4.442,0.523 6.207,2.014 1.435,1.213 2.583,3.027 2.722,5.814 0.102,2.046 -0.332,3.758 -0.721,4.565 -0.142,0.322 -0.113,0.434 0.046,0.471 l 0.571,0.152 c 0.137,0.038 0.14,0.083 0.156,0.42 0.017,0.338 -0.026,0.385 -0.341,0.4 -0.428,0.021 -4.229,0.615 -4.897,0.761 -0.156,0.03 -0.27,0.014 -0.298,-0.098 l -0.159,-0.488 c -0.051,-0.109 0.034,-0.204 0.233,-0.281 0.887,-0.292 2.003,-0.956 2.923,-1.948 0.896,-1.013 1.579,-2.241 1.495,-3.95 -0.163,-3.282 -3.222,-4.527 -6.548,-4.34 -1.416,0.07 -4.161,0.612 -5.768,2.291 -1.435,1.536 -1.551,2.826 -1.513,3.591 0.127,2.563 1.391,4.415 2.668,5.186 0.186,0.104 0.281,0.212 0.197,0.329 l -0.318,0.398 c -0.042,0.069 -0.131,0.097 -0.27,0.014 -1.953,-1.211 -3.882,-3.301 -4.039,-6.471 -0.147,-2.989 0.585,-4.603 1.773,-6.082 z"
   inkscape:connector-curvature="0" />
		</g>
		<g
   id="g5012">
			<path
   id="path5014"
   d="m 383.479,415.537 c -0.43,-0.268 -3.244,-1.941 -3.951,-2.08 -0.485,-0.095 -1.055,0 -1.185,0.663 l -0.151,0.772 c -0.043,0.221 -0.136,0.226 -0.224,0.209 l -0.486,-0.096 c -0.177,-0.034 -0.238,-0.069 -0.204,-0.246 0.057,-0.287 0.3,-1.18 0.654,-2.991 0.315,-1.612 0.344,-2.111 0.404,-2.42 0.026,-0.133 0.163,-0.129 0.317,-0.099 l 0.42,0.082 c 0.133,0.025 0.194,0.061 0.169,0.193 l -0.112,0.574 c -0.104,0.53 0.102,1.121 0.678,1.692 0.403,0.399 3.939,2.72 5.741,3.829 0.407,0.263 4.806,2.981 5.363,3.297 0.208,0.109 0.474,0.276 0.747,0.169 0.101,-0.049 0.229,-0.115 0.317,-0.099 0.065,0.013 0.146,0.074 0.155,0.26 0.017,0.737 0.31,2.285 0.62,2.69 0.089,0.132 0.164,0.215 0.143,0.326 -0.025,0.132 -0.167,0.15 -0.423,0.169 -1.474,0.147 -6.759,0.902 -8.254,1.046 -1.822,0.171 -6.212,0.803 -6.868,0.995 -0.803,0.233 -1.181,0.756 -1.245,1.087 l -0.146,0.751 c -0.026,0.133 -0.119,0.137 -0.229,0.115 l -0.42,-0.082 c -0.132,-0.025 -0.282,-0.078 -0.248,-0.255 0.082,-0.42 0.239,-0.87 0.792,-3.697 0.359,-1.834 0.444,-2.62 0.53,-3.062 0.043,-0.221 0.181,-0.217 0.335,-0.187 l 0.42,0.082 c 0.11,0.021 0.194,0.061 0.173,0.171 l -0.121,0.619 c -0.117,0.596 0.065,0.838 0.665,0.817 0.834,-0.043 3.83,-0.351 4.677,-0.461 l 0.947,-4.833 z m -0.025,4.812 c 0.701,-0.069 5.595,-0.465 6.178,-0.512 0.349,-0.023 0.512,-0.037 0.533,-0.147 0.026,-0.133 -0.05,-0.217 -0.235,-0.321 -0.266,-0.167 -5.106,-3.086 -5.624,-3.371 l -0.852,4.351 z"
   inkscape:connector-curvature="0" />
		</g>
		<g
   id="g5016">
			<path
   id="path5018"
   d="m 378.459,436.135 c -0.35,-0.156 -4.785,-2.146 -5.635,-2.452 l -0.524,1.17 c -0.434,0.966 -0.848,1.89 -1.242,3.045 -0.394,1.155 1.443,3.656 2.065,4.306 0.096,0.116 0.129,0.206 0.013,0.302 l -0.349,0.337 c -0.068,0.043 -0.089,0.034 -0.203,-0.042 -0.116,-0.126 -3.137,-2.467 -3.636,-2.839 0.28,-0.516 2.953,-6.421 3.801,-8.311 0.912,-2.033 1.182,-2.801 1.302,-3.067 0.064,-0.144 0.114,-0.146 0.258,-0.081 l 0.514,0.229 c 0.103,0.047 0.135,0.086 0.079,0.209 l -0.285,0.637 c -0.341,0.76 -0.108,1.012 0.117,1.113 0.391,0.175 5.477,2.529 6.729,3.092 l 1.149,0.516 c 1.314,0.589 3.51,1.524 3.848,1.651 0.553,0.198 0.804,0.188 1.016,-0.285 l 0.341,-0.76 c 0.056,-0.123 0.167,-0.098 0.271,-0.052 l 0.492,0.222 c 0.104,0.046 0.135,0.085 0.08,0.208 -0.102,0.226 -0.495,0.938 -1.333,2.807 -1.077,2.402 -1.402,3.293 -1.485,3.478 -0.074,0.164 -0.145,0.157 -0.288,0.093 l -0.473,-0.212 c -0.103,-0.046 -0.146,-0.114 -0.072,-0.279 l 0.433,-0.965 c 0.286,-0.637 0.117,-0.811 -0.438,-1.06 -0.267,-0.12 -3.341,-1.572 -4.778,-2.217 l -1.767,-0.793 z"
   inkscape:connector-curvature="0" />
		</g>
	</g>
</g><g
     id="Layer_3">
	<g
   id="g5021">
		<g
   id="g5023">
			<path
   id="path5025"
   d="m 255.172,473.913 c 0.076,0.048 0.121,0.104 0.037,0.236 -0.335,0.613 -0.586,1.6 -0.599,2.631 -0.002,1.224 0.665,2.231 1.578,2.81 0.913,0.577 2.762,0.896 3.713,-0.607 0.999,-1.578 0.983,-2.228 -0.899,-4.724 -0.438,-0.57 -1.27,-1.949 -1.71,-3.399 -0.292,-1.011 0.06,-2.199 0.758,-3.303 0.734,-1.16 1.513,-1.759 3.195,-1.893 1.265,-0.105 2.156,0.086 3.316,0.82 1.388,0.878 1.986,1.576 2.289,1.98 0.142,0.196 0.299,0.243 0.498,0.182 l 0.404,-0.091 c 0.125,-0.027 0.244,-0.006 0.357,0.066 0.133,0.084 0.039,0.317 -0.014,0.444 l -1.754,3.444 c -0.048,0.076 -0.098,0.071 -0.167,0.054 l -0.503,-0.132 c -0.119,-0.021 -0.19,-0.12 -0.163,-0.289 0.14,-0.685 0.286,-1.631 0.072,-2.725 -0.139,-0.833 -0.541,-1.46 -1.396,-2.002 -1.426,-0.902 -2.798,-0.039 -3.111,0.455 -0.445,0.704 -0.788,1.286 -0.613,2.063 0.169,0.826 0.965,1.969 1.728,2.825 0.745,0.844 1.186,1.788 1.52,2.985 0.32,1.135 0.095,2.164 -0.747,3.496 -1.468,2.319 -4.314,3.155 -6.825,1.567 -1.712,-1.083 -2.425,-1.935 -2.887,-2.973 -0.132,-0.296 -0.21,-0.426 -0.305,-0.485 -0.114,-0.072 -0.274,0.013 -0.509,0.131 -0.247,0.137 -0.354,0.096 -0.487,0.012 -0.209,-0.133 -0.225,-0.276 -0.074,-0.474 l 2.591,-3.421 c 0.103,-0.121 0.16,-0.085 0.236,-0.036 l 0.471,0.353 z"
   inkscape:connector-curvature="0" />
		</g>
		<g
   id="g5027">
			<path
   id="path5029"
   d="m 272.112,473.561 c 0.273,-0.739 0.25,-1.132 -0.193,-1.296 l -0.992,-0.367 c -0.126,-0.047 -0.132,-0.097 -0.077,-0.244 l 0.188,-0.507 c 0.047,-0.127 0.083,-0.161 0.252,-0.099 0.211,0.078 1.222,0.524 3.438,1.345 1.857,0.687 2.894,0.998 3.126,1.084 0.168,0.063 0.174,0.113 0.127,0.239 l -0.203,0.549 c -0.039,0.105 -0.076,0.141 -0.224,0.086 l -0.718,-0.266 c -0.718,-0.266 -1.225,0.003 -1.423,0.409 -0.107,0.225 -0.659,1.652 -1.058,2.729 l -0.515,1.394 c -0.414,1.118 -1.321,3.83 -1.55,4.514 -0.338,0.979 -0.5,1.999 -0.254,2.762 0.384,1.103 1.251,1.807 2.201,2.158 0.781,0.289 2.069,0.31 2.834,-0.007 1.125,-0.447 2.041,-1.429 2.603,-2.949 l 1.203,-3.25 c 0.656,-1.773 1.304,-4.174 1.399,-4.69 0.119,-0.58 -0.079,-1.085 -0.438,-1.218 l -0.675,-0.25 c -0.127,-0.047 -0.125,-0.118 -0.085,-0.224 l 0.203,-0.549 c 0.039,-0.105 0.076,-0.14 0.202,-0.093 0.211,0.078 1.159,0.501 2.594,1.031 1.14,0.422 1.839,0.608 2.029,0.679 0.19,0.071 0.18,0.163 0.141,0.269 l -0.172,0.464 c -0.047,0.127 -0.099,0.204 -0.205,0.165 l -0.654,-0.242 c -0.802,-0.297 -1.084,0.271 -1.205,0.466 -0.151,0.28 -1.229,3.193 -1.338,3.488 -0.109,0.296 -1.519,3.975 -1.886,4.774 -0.767,1.684 -1.829,2.803 -3.286,3.368 -1.233,0.479 -2.848,0.434 -4.22,-0.074 -0.992,-0.367 -2.289,-1.015 -3.035,-1.723 -0.849,-0.818 -1.411,-2.153 -1.418,-3.692 -0.023,-1.04 0.416,-2.485 1.439,-5.251 l 1.845,-4.982 z"
   inkscape:connector-curvature="0" />
		</g>
		<g
   id="g5031">
			<path
   id="path5033"
   d="m 289.285,482.903 c 0.205,-1.652 0.383,-3.082 0.435,-3.688 0.069,-0.74 -0.174,-1.156 -0.487,-1.194 l -0.893,-0.111 c -0.112,-0.014 -0.126,-0.084 -0.115,-0.173 l 0.075,-0.604 c 0.014,-0.111 0.042,-0.153 0.153,-0.14 0.201,0.025 0.885,0.179 3.32,0.48 1.251,0.155 3.225,0.332 4.141,0.446 1.742,0.216 2.96,1.002 3.771,1.965 0.712,0.837 1.073,1.766 0.971,2.593 -0.352,2.836 -2.632,3.846 -4.62,3.78 l -0.02,0.157 c 0.665,0.309 0.969,0.777 1.327,1.366 0.246,0.394 1.228,2.534 1.373,2.824 0.109,0.218 1.104,2.064 1.487,2.634 0.232,0.324 1.059,0.608 1.572,0.672 0.156,0.02 0.167,0.111 0.157,0.201 l -0.067,0.535 c -0.017,0.135 -0.047,0.198 -0.204,0.18 -0.179,-0.022 -0.751,-0.162 -2.471,-0.375 -0.648,-0.081 -1.48,-0.139 -2.13,-0.196 -0.606,-0.598 -1.669,-3.36 -1.955,-4.167 -0.571,-1.612 -1.282,-3.379 -2.354,-3.513 l -0.76,-0.094 -0.141,1.139 c -0.164,1.318 -0.407,3.828 -0.398,4.124 -0.014,0.475 0.115,0.898 0.45,0.94 l 0.916,0.113 c 0.156,0.02 0.17,0.09 0.157,0.201 l -0.067,0.536 c -0.019,0.156 -0.047,0.198 -0.382,0.156 -0.022,-0.003 -0.572,-0.139 -2.917,-0.43 -2.368,-0.294 -2.89,-0.291 -3.135,-0.321 -0.179,-0.022 -0.17,-0.09 -0.151,-0.246 l 0.063,-0.514 c 0.014,-0.111 0.022,-0.179 0.134,-0.164 l 0.67,0.083 c 0.491,0.061 0.913,-0.046 0.982,-0.604 0.319,-2.205 0.58,-4.305 0.843,-6.427 l 0.27,-2.164 z m 2.828,2.801 c 0.421,0.075 0.689,0.108 0.891,0.134 2.948,0.365 3.99,-2.362 4.12,-3.412 0.128,-1.028 -0.107,-2.055 -0.538,-2.607 -0.715,-0.814 -1.687,-1.207 -2.357,-1.29 -0.38,-0.048 -0.676,-0.039 -0.874,0.095 -0.145,0.073 -0.243,0.311 -0.32,0.573 l -0.922,6.507 z"
   inkscape:connector-curvature="0" />
		</g>
		<g
   id="g5035">
			<path
   id="path5037"
   d="m 314.464,478.037 c -0.01,-0.112 0.009,-0.159 0.121,-0.169 0.202,-0.018 1.239,-0.042 2.741,-0.175 2.085,-0.185 2.64,-0.301 2.841,-0.318 0.135,-0.013 0.161,0.03 0.175,0.188 l 0.05,0.561 c 0.008,0.09 -0.009,0.159 -0.144,0.171 l -0.516,0.045 c -0.381,0.034 -1.062,0.253 -1.556,1.313 -0.762,1.604 -1.492,4.335 -2.177,6.294 -0.454,1.26 -2.456,7.492 -2.779,8.176 -0.133,0.283 -0.235,0.405 -0.482,0.427 -0.291,0.026 -0.404,-0.235 -0.564,-0.515 -0.986,-1.698 -3.507,-6.942 -4.271,-8.435 -0.765,-1.491 -2.173,-4.643 -2.498,-5.246 -0.27,-0.496 -0.559,-0.696 -1.029,-0.655 l -0.583,0.052 c -0.09,0.008 -0.122,-0.103 -0.132,-0.214 l -0.048,-0.538 c -0.01,-0.112 0.009,-0.159 0.143,-0.171 0.224,-0.021 0.97,-0.019 3.661,-0.256 2.331,-0.206 3.334,-0.363 3.536,-0.381 0.201,-0.018 0.23,0.048 0.242,0.182 l 0.045,0.516 c 0.011,0.112 -0.004,0.204 -0.161,0.218 l -0.964,0.086 c -0.538,0.047 -0.942,0.331 -0.917,0.623 0.017,0.179 0.04,0.448 0.135,0.756 0.251,0.791 1.339,3.384 1.925,4.643 0.365,0.804 1.777,4 2.146,4.849 l 0.09,-0.008 c 0.518,-1.56 1.368,-4.459 1.588,-5.292 0.329,-1.136 0.857,-3.081 1.127,-4.121 0.173,-0.603 0.139,-0.984 0.115,-1.253 -0.023,-0.27 -0.334,-0.716 -0.984,-0.659 l -0.695,0.062 c -0.09,0.008 -0.118,-0.057 -0.13,-0.191 l -0.051,-0.565 z"
   inkscape:connector-curvature="0" />
		</g>
		<g
   id="g5039">
			<path
   id="path5041"
   d="m 328.358,482.45 c 0.986,-0.313 1.91,-0.676 2.147,-0.822 0.338,-0.201 0.577,-0.489 0.776,-0.978 0.135,-0.396 0.202,-1.079 0.072,-1.486 -0.047,-0.15 0.004,-0.214 0.111,-0.248 l 0.6,-0.118 c 0.114,-0.013 0.206,-0.019 0.226,0.117 0.051,0.385 0.404,1.501 0.643,2.252 0.306,0.966 0.717,1.968 0.902,2.405 0.063,0.122 -0.017,0.171 -0.117,0.226 l -0.48,0.271 c -0.079,0.049 -0.136,0.02 -0.227,-0.117 -0.194,-0.316 -0.565,-0.742 -0.775,-0.958 -0.365,-0.333 -0.969,-0.449 -1.418,-0.378 -0.606,0.098 -1.285,0.266 -2.229,0.564 l 0.407,1.287 c 0.367,1.159 1.134,3.206 1.256,3.593 0.353,1.115 0.711,1.427 1.031,1.468 0.362,0.026 0.79,-0.038 1.863,-0.378 0.365,-0.115 1.26,-0.422 1.696,-0.607 0.416,-0.179 0.991,-0.598 1.406,-1.225 0.416,-0.627 1.196,-2.338 1.462,-2.989 0.059,-0.112 0.116,-0.154 0.194,-0.132 l 0.433,0.1 c 0.1,0.016 0.142,0.073 0.141,0.144 l 0.06,3.546 c -0.003,0.214 -0.112,0.391 -0.37,0.472 -0.107,0.034 -0.586,0.162 -1.966,0.575 -1.395,0.441 -3.676,1.14 -7.389,2.315 -0.794,0.251 -1.388,0.463 -1.816,0.599 -0.444,0.164 -0.717,0.273 -0.909,0.335 -0.15,0.048 -0.214,-0.003 -0.269,-0.175 l -0.143,-0.451 c -0.04,-0.128 0.004,-0.213 0.153,-0.261 l 0.645,-0.204 c 0.986,-0.313 1.025,-0.489 0.787,-1.24 l -2.275,-7.188 c -0.563,-1.781 -1.442,-4.407 -1.531,-4.614 -0.304,-0.66 -0.565,-0.742 -1.145,-0.559 l -0.837,0.265 c -0.086,0.027 -0.128,-0.03 -0.176,-0.181 l -0.163,-0.515 c -0.021,-0.064 -0.025,-0.157 0.103,-0.198 0.473,-0.149 1.244,-0.322 3.196,-0.94 l 7.525,-2.406 c 0.343,-0.108 0.737,-0.28 0.845,-0.314 0.107,-0.033 0.163,-0.004 0.205,0.053 0.182,0.273 1.82,2.989 1.974,3.177 0.077,0.094 0.091,0.137 0.004,0.235 l -0.289,0.28 c -0.072,0.069 -0.187,0.082 -0.285,-0.005 -0.161,-0.138 -2.704,-1.457 -3.293,-1.602 -0.538,-0.137 -1.228,-0.225 -1.813,-0.063 l -2.86,0.812 1.912,6.261 z"
   inkscape:connector-curvature="0" />
		</g>
		<g
   id="g5043">
			<path
   id="path5045"
   d="m 350.078,477.661 c 0.442,0.758 1.237,1.987 1.359,2.151 0.421,0.588 0.746,0.477 1.058,0.295 l 0.563,-0.328 c 0.137,-0.08 0.171,-0.021 0.216,0.057 l 0.283,0.485 c 0.068,0.117 0.103,0.176 -0.034,0.255 -0.233,0.136 -1.025,0.52 -2.853,1.585 -2.022,1.18 -2.592,1.589 -2.806,1.714 -0.077,0.045 -0.15,0.01 -0.229,-0.126 l -0.272,-0.467 c -0.045,-0.078 -0.06,-0.147 0.057,-0.216 l 0.681,-0.396 c 0.506,-0.295 0.548,-0.58 0.42,-0.844 -0.14,-0.284 -0.996,-1.843 -2.05,-3.651 l -0.488,-0.836 c -0.662,-0.421 -7.083,-4.285 -7.955,-4.662 -0.403,-0.156 -0.961,-0.039 -1.271,0.142 l -0.292,0.171 c -0.116,0.067 -0.17,0.021 -0.215,-0.058 l -0.317,-0.544 c -0.046,-0.078 -0.049,-0.128 0.067,-0.196 0.175,-0.102 1.123,-0.576 2.854,-1.585 2.003,-1.168 2.669,-1.635 2.863,-1.748 0.116,-0.067 0.158,-0.04 0.215,0.057 l 0.284,0.486 c 0.057,0.098 0.082,0.187 -0.034,0.255 l -0.447,0.261 c -0.272,0.158 -0.354,0.466 -0.172,0.777 0.204,0.35 5.114,3.453 6.296,4.275 -0.04,-1.41 -0.099,-6.873 -0.45,-7.476 -0.192,-0.33 -0.716,-0.469 -1.124,-0.23 l -0.525,0.307 c -0.116,0.067 -0.17,0.021 -0.238,-0.096 l -0.294,-0.506 c -0.046,-0.078 -0.049,-0.128 0.067,-0.196 0.194,-0.113 1.026,-0.52 2.465,-1.358 1.342,-0.782 1.735,-1.09 1.91,-1.192 0.136,-0.079 0.179,-0.052 0.246,0.065 l 0.272,0.467 c 0.068,0.116 0.082,0.186 -0.054,0.266 l -0.35,0.204 c -0.233,0.136 -0.749,0.593 -0.837,1.112 -0.071,0.459 -0.202,7.205 -0.126,9.167 l 1.257,2.157 z"
   inkscape:connector-curvature="0" />
		</g>
	</g>
</g><g
     id="Layer_2_1_">
	<g
   id="g5048">
		<g
   id="g5050">
			<g
   id="g5052">
				<g
   id="g5054">
					<g
   id="g5056">
						<path
   id="path5058"
   d="m 256.674,427.766 2.283,12.363 h -4.539 l 2.256,-12.363 z m 14.334,30.052 -8.889,-42.656 h -9.211 l -8.803,42.656 h 7.08 l 1.672,-8.367 h 7.695 l 1.566,8.367 h 8.89 z"
   inkscape:connector-curvature="0"
   style="fill:#474747" />
						<path
   id="path5060"
   d="m 256.674,427.766 2.283,12.363 h -4.539 l 2.256,-12.363 z m 14.334,30.052 -8.889,-42.656 h -9.211 l -8.803,42.656 h 7.08 l 1.672,-8.367 h 7.695 l 1.566,8.367 h 8.89 z"
   inkscape:connector-curvature="0"
   style="fill:#474747" />
					</g>
				</g>
				<g
   id="g5062">
					<g
   id="g5064">
						<path
   id="path5066"
   d="m 256.674,427.766 2.283,12.363 h -4.539 l 2.256,-12.363 z m 14.334,30.052 -8.889,-42.656 h -9.211 l -8.803,42.656 h 7.08 l 1.672,-8.367 h 7.695 l 1.566,8.367 h 8.89 z"
   inkscape:connector-curvature="0"
   style="fill:#474747" />
						<path
   id="path5068"
   d="m 256.674,427.766 2.283,12.363 h -4.539 l 2.256,-12.363 z m 14.334,30.052 -8.889,-42.656 h -9.211 l -8.803,42.656 h 7.08 l 1.672,-8.367 h 7.695 l 1.566,8.367 h 8.89 z"
   inkscape:connector-curvature="0"
   style="fill:#474747" />
					</g>
				</g>
			</g>
		</g>
		<g
   id="g5070">
			<g
   id="g5072">
				<g
   id="g5074">
					<g
   id="g5076">
						<path
   id="path5078"
   d="m 300.535,447.762 v 10.057 h -23.576 v -8.146 l 12.488,-24.596 H 277.91 v -9.914 h 22.219 v 8.297 l -12.166,24.303 h 12.572 z"
   inkscape:connector-curvature="0"
   style="fill:#474747" />
						<path
   id="path5080"
   d="m 300.535,447.762 v 10.057 h -23.576 v -8.146 l 12.488,-24.596 H 277.91 v -9.914 h 22.219 v 8.297 l -12.166,24.303 h 12.572 z"
   inkscape:connector-curvature="0"
   style="fill:#474747" />
					</g>
				</g>
				<g
   id="g5082">
					<g
   id="g5084">
						<path
   id="path5086"
   d="m 300.535,447.762 v 10.057 h -23.576 v -8.146 l 12.488,-24.596 H 277.91 v -9.914 h 22.219 v 8.297 l -12.166,24.303 h 12.572 z"
   inkscape:connector-curvature="0"
   style="fill:#474747" />
						<path
   id="path5088"
   d="m 300.535,447.762 v 10.057 h -23.576 v -8.146 l 12.488,-24.596 H 277.91 v -9.914 h 22.219 v 8.297 l -12.166,24.303 h 12.572 z"
   inkscape:connector-curvature="0"
   style="fill:#474747" />
					</g>
				</g>
			</g>
		</g>
		<g
   id="g5090">
			<g
   id="g5092">
				<g
   id="g5094">
					<g
   id="g5096">
						<path
   id="path5098"
   d="m 333.352,433.959 v 23.859 h -4.25 c -0.352,-1.736 -0.73,-3.211 -1.148,-4.418 -1.756,3.387 -4.359,5.084 -7.805,5.084 -3.656,0 -6.662,-1.922 -9.016,-5.764 -2.352,-3.838 -3.531,-9.047 -3.531,-15.621 0,-6.369 1.139,-11.732 3.414,-16.078 2.279,-4.348 5.666,-6.521 10.166,-6.521 3.381,0 6.094,1.289 8.162,3.871 2.063,2.58 3.398,6.26 4.008,11.035 l -8.461,1.248 c -0.41,-4.453 -1.695,-6.68 -3.852,-6.68 -2.834,0 -4.246,4.09 -4.246,12.275 0,4.961 0.451,8.23 1.359,9.809 0.902,1.576 2.01,2.367 3.305,2.367 1.043,0 1.934,-0.48 2.672,-1.447 0.732,-0.961 1.107,-2.291 1.125,-3.986 h -4.66 v -9.033 h 12.758 z"
   inkscape:connector-curvature="0"
   style="fill:#474747" />
						<path
   id="path5100"
   d="m 333.352,433.959 v 23.859 h -4.25 c -0.352,-1.736 -0.73,-3.211 -1.148,-4.418 -1.756,3.387 -4.359,5.084 -7.805,5.084 -3.656,0 -6.662,-1.922 -9.016,-5.764 -2.352,-3.838 -3.531,-9.047 -3.531,-15.621 0,-6.369 1.139,-11.732 3.414,-16.078 2.279,-4.348 5.666,-6.521 10.166,-6.521 3.381,0 6.094,1.289 8.162,3.871 2.063,2.58 3.398,6.26 4.008,11.035 l -8.461,1.248 c -0.41,-4.453 -1.695,-6.68 -3.852,-6.68 -2.834,0 -4.246,4.09 -4.246,12.275 0,4.961 0.451,8.23 1.359,9.809 0.902,1.576 2.01,2.367 3.305,2.367 1.043,0 1.934,-0.48 2.672,-1.447 0.732,-0.961 1.107,-2.291 1.125,-3.986 h -4.66 v -9.033 h 12.758 z"
   inkscape:connector-curvature="0"
   style="fill:#474747" />
					</g>
				</g>
			</g>
		</g>
		<g
   id="g5102">
			<g
   id="g5104">
				<g
   id="g5106">
					<path
   id="path5108"
   d="m 340.148,445.547 8.102,-2.189 c 0.68,3.428 2.422,5.139 5.229,5.139 2.186,0 3.279,-0.879 3.279,-2.637 0,-0.922 -0.256,-1.635 -0.76,-2.141 -0.504,-0.508 -1.406,-0.965 -2.709,-1.371 -4.969,-1.439 -8.16,-3.314 -9.572,-5.635 -1.412,-2.321 -2.121,-5.045 -2.121,-8.182 0,-4.012 1.014,-7.352 3.045,-10.023 2.035,-2.672 4.953,-4.008 8.766,-4.008 5.773,0 9.594,3.486 11.451,10.459 l -7.195,3.275 c -0.75,-2.842 -2.268,-4.26 -4.564,-4.26 -1.904,0 -2.855,0.889 -2.855,2.666 0,0.789 0.213,1.406 0.646,1.844 0.428,0.436 1.254,0.857 2.49,1.262 3.398,1.082 5.813,2.033 7.236,2.865 1.43,0.826 2.619,2.25 3.574,4.266 0.959,2.016 1.436,4.389 1.436,7.111 0,4.326 -1.16,7.824 -3.492,10.49 -2.328,2.672 -5.391,4.006 -9.172,4.006 -6.915,0 -11.191,-4.312 -12.814,-12.937 z"
   inkscape:connector-curvature="0"
   style="fill:#474747" />
					<path
   id="path5110"
   d="m 340.148,445.547 8.102,-2.189 c 0.68,3.428 2.422,5.139 5.229,5.139 2.186,0 3.279,-0.879 3.279,-2.637 0,-0.922 -0.256,-1.635 -0.76,-2.141 -0.504,-0.508 -1.406,-0.965 -2.709,-1.371 -4.969,-1.439 -8.16,-3.314 -9.572,-5.635 -1.412,-2.321 -2.121,-5.045 -2.121,-8.182 0,-4.012 1.014,-7.352 3.045,-10.023 2.035,-2.672 4.953,-4.008 8.766,-4.008 5.773,0 9.594,3.486 11.451,10.459 l -7.195,3.275 c -0.75,-2.842 -2.268,-4.26 -4.564,-4.26 -1.904,0 -2.855,0.889 -2.855,2.666 0,0.789 0.213,1.406 0.646,1.844 0.428,0.436 1.254,0.857 2.49,1.262 3.398,1.082 5.813,2.033 7.236,2.865 1.43,0.826 2.619,2.25 3.574,4.266 0.959,2.016 1.436,4.389 1.436,7.111 0,4.326 -1.16,7.824 -3.492,10.49 -2.328,2.672 -5.391,4.006 -9.172,4.006 -6.915,0 -11.191,-4.312 -12.814,-12.937 z"
   inkscape:connector-curvature="0"
   style="fill:#474747" />
				</g>
			</g>
		</g>
	</g>
</g><g
     id="Layer_2">
	<g
   id="g5113">
		<g
   id="g5115">
			<g
   id="g5117">
				<g
   id="g5119">
					<g
   id="g5121">
						<path
   id="path5123"
   d="m 255.508,426.869 2.281,12.361 h -4.539 l 2.258,-12.361 z m 14.334,30.053 -8.891,-42.656 h -9.211 l -8.803,42.656 h 7.08 l 1.672,-8.367 h 7.697 l 1.564,8.367 h 8.892 z"
   inkscape:connector-curvature="0"
   style="fill:#00a5ad" />
						<path
   id="path5125"
   d="m 255.508,426.869 2.281,12.361 h -4.539 l 2.258,-12.361 z m 14.334,30.053 -8.891,-42.656 h -9.211 l -8.803,42.656 h 7.08 l 1.672,-8.367 h 7.697 l 1.564,8.367 h 8.892 z"
   inkscape:connector-curvature="0"
   style="fill:none;stroke:#000000;stroke-width:0.72000003" />
					</g>
				</g>
				<g
   id="g5127">
					<g
   id="g5129">
						<path
   id="path5131"
   d="m 255.508,426.869 2.281,12.361 h -4.539 l 2.258,-12.361 z m 14.334,30.053 -8.891,-42.656 h -9.211 l -8.803,42.656 h 7.08 l 1.672,-8.367 h 7.697 l 1.564,8.367 h 8.892 z"
   inkscape:connector-curvature="0"
   style="fill:#00a5ad" />
						<path
   id="path5133"
   d="m 255.508,426.869 2.281,12.361 h -4.539 l 2.258,-12.361 z m 14.334,30.053 -8.891,-42.656 h -9.211 l -8.803,42.656 h 7.08 l 1.672,-8.367 h 7.697 l 1.564,8.367 h 8.892 z"
   stroke-miterlimit="3.8637"
   inkscape:connector-curvature="0"
   style="fill:none;stroke:#000000;stroke-width:0.72000003;stroke-miterlimit:3.86369991" />
					</g>
				</g>
			</g>
		</g>
		<g
   id="g5135">
			<g
   id="g5137">
				<g
   id="g5139">
					<g
   id="g5141">
						<path
   id="path5143"
   d="m 299.367,446.861 v 10.061 h -23.574 v -8.15 l 12.486,-24.592 h -11.535 v -9.914 h 22.219 v 8.297 l -12.166,24.299 h 12.57 z"
   inkscape:connector-curvature="0"
   style="fill:#00a5ad" />
						<path
   id="path5145"
   d="m 299.367,446.861 v 10.061 h -23.574 v -8.15 l 12.486,-24.592 h -11.535 v -9.914 h 22.219 v 8.297 l -12.166,24.299 h 12.57 z"
   inkscape:connector-curvature="0"
   style="fill:none;stroke:#000000;stroke-width:0.72000003" />
					</g>
				</g>
				<g
   id="g5147">
					<g
   id="g5149">
						<path
   id="path5151"
   d="m 299.367,446.861 v 10.061 h -23.574 v -8.15 l 12.486,-24.592 h -11.535 v -9.914 h 22.219 v 8.297 l -12.166,24.299 h 12.57 z"
   inkscape:connector-curvature="0"
   style="fill:#00a5ad" />
						<path
   id="path5153"
   d="m 299.367,446.861 v 10.061 h -23.574 v -8.15 l 12.486,-24.592 h -11.535 v -9.914 h 22.219 v 8.297 l -12.166,24.299 h 12.57 z"
   stroke-miterlimit="3.8637"
   inkscape:connector-curvature="0"
   style="fill:none;stroke:#000000;stroke-width:0.72000003;stroke-miterlimit:3.86369991" />
					</g>
				</g>
			</g>
		</g>
		<g
   id="g5155">
			<g
   id="g5157">
				<g
   id="g5159">
					<g
   id="g5161">
						<path
   id="path5163"
   d="m 332.184,433.063 v 23.859 h -4.252 c -0.352,-1.74 -0.732,-3.211 -1.148,-4.418 -1.752,3.387 -4.359,5.08 -7.805,5.08 -3.656,0 -6.66,-1.922 -9.014,-5.76 -2.352,-3.838 -3.529,-9.047 -3.529,-15.621 0,-6.371 1.139,-11.736 3.414,-16.078 2.277,-4.348 5.666,-6.521 10.166,-6.521 3.379,0 6.094,1.289 8.162,3.867 2.061,2.584 3.396,6.264 4.006,11.039 l -8.461,1.248 c -0.414,-4.453 -1.697,-6.68 -3.854,-6.68 -2.83,0 -4.248,4.09 -4.248,12.275 0,4.957 0.457,8.227 1.363,9.809 0.904,1.576 2.012,2.365 3.301,2.365 1.049,0 1.939,-0.48 2.672,-1.445 0.738,-0.961 1.113,-2.293 1.129,-3.99 h -4.662 v -9.029 h 12.76 z"
   inkscape:connector-curvature="0"
   style="fill:#00a5ad" />
						<path
   id="path5165"
   d="m 332.184,433.063 v 23.859 h -4.252 c -0.352,-1.74 -0.732,-3.211 -1.148,-4.418 -1.752,3.387 -4.359,5.08 -7.805,5.08 -3.656,0 -6.66,-1.922 -9.014,-5.76 -2.352,-3.838 -3.529,-9.047 -3.529,-15.621 0,-6.371 1.139,-11.736 3.414,-16.078 2.277,-4.348 5.666,-6.521 10.166,-6.521 3.379,0 6.094,1.289 8.162,3.867 2.061,2.584 3.396,6.264 4.006,11.039 l -8.461,1.248 c -0.414,-4.453 -1.697,-6.68 -3.854,-6.68 -2.83,0 -4.248,4.09 -4.248,12.275 0,4.957 0.457,8.227 1.363,9.809 0.904,1.576 2.012,2.365 3.301,2.365 1.049,0 1.939,-0.48 2.672,-1.445 0.738,-0.961 1.113,-2.293 1.129,-3.99 h -4.662 v -9.029 h 12.76 z"
   stroke-miterlimit="3.8637"
   inkscape:connector-curvature="0"
   style="fill:none;stroke:#000000;stroke-width:0.72000003;stroke-miterlimit:3.86369991" />
					</g>
				</g>
			</g>
		</g>
		<g
   id="g5167">
			<g
   id="g5169">
				<g
   id="g5171">
					<path
   id="path5173"
   d="m 338.98,444.646 8.1,-2.186 c 0.68,3.426 2.424,5.139 5.232,5.139 2.184,0 3.275,-0.879 3.275,-2.637 0,-0.926 -0.252,-1.635 -0.756,-2.145 -0.504,-0.506 -1.412,-0.963 -2.713,-1.371 -4.969,-1.436 -8.162,-3.311 -9.568,-5.631 -1.412,-2.32 -2.121,-5.047 -2.121,-8.186 0,-4.008 1.014,-7.35 3.041,-10.021 2.037,-2.67 4.955,-4.006 8.766,-4.006 5.777,0 9.598,3.486 11.455,10.459 l -7.195,3.273 c -0.75,-2.84 -2.273,-4.258 -4.566,-4.258 -1.902,0 -2.857,0.885 -2.857,2.666 0,0.785 0.217,1.404 0.645,1.84 0.432,0.439 1.26,0.861 2.494,1.264 3.398,1.08 5.813,2.035 7.238,2.867 1.43,0.826 2.619,2.25 3.574,4.266 0.955,2.016 1.436,4.387 1.436,7.107 0,4.33 -1.166,7.828 -3.492,10.494 -2.332,2.672 -5.391,4.002 -9.176,4.002 -6.915,0.002 -11.187,-4.311 -12.812,-12.936 z"
   inkscape:connector-curvature="0"
   style="fill:#00a5ad" />
					<path
   id="path5175"
   d="m 338.98,444.646 8.1,-2.186 c 0.68,3.426 2.424,5.139 5.232,5.139 2.184,0 3.275,-0.879 3.275,-2.637 0,-0.926 -0.252,-1.635 -0.756,-2.145 -0.504,-0.506 -1.412,-0.963 -2.713,-1.371 -4.969,-1.436 -8.162,-3.311 -9.568,-5.631 -1.412,-2.32 -2.121,-5.047 -2.121,-8.186 0,-4.008 1.014,-7.35 3.041,-10.021 2.037,-2.67 4.955,-4.006 8.766,-4.006 5.777,0 9.598,3.486 11.455,10.459 l -7.195,3.273 c -0.75,-2.84 -2.273,-4.258 -4.566,-4.258 -1.902,0 -2.857,0.885 -2.857,2.666 0,0.785 0.217,1.404 0.645,1.84 0.432,0.439 1.26,0.861 2.494,1.264 3.398,1.08 5.813,2.035 7.238,2.867 1.43,0.826 2.619,2.25 3.574,4.266 0.955,2.016 1.436,4.387 1.436,7.107 0,4.33 -1.166,7.828 -3.492,10.494 -2.332,2.672 -5.391,4.002 -9.176,4.002 -6.915,0.002 -11.187,-4.311 -12.812,-12.936 z"
   stroke-miterlimit="3.8637"
   inkscape:connector-curvature="0"
   style="fill:none;stroke:#000000;stroke-width:0.72000003;stroke-miterlimit:3.86369991" />
				</g>
			</g>
		</g>
	</g>
</g></g>
</svg>